<!DOCTYPE svg PUBLIC "-//W3C//DTD SVG 1.1//EN" "http://www.w3.org/Graphics/SVG/1.1/DTD/svg11.dtd">

<!-- Uploaded to: SVG Repo, www.svgrepo.com, Transformed by: SVG Repo Mixer Tools -->
<svg fill="#ffffff" width="800px" height="800px" viewBox="-1.74 0 40 40" xmlns="http://www.w3.org/2000/svg" stroke="#ffffff">

<g id="SVGRepo_bgCarrier" stroke-width="0"/>

<g id="SVGRepo_tracerCarrier" stroke-linecap="round" stroke-linejoin="round"/>

<g id="SVGRepo_iconCarrier"> <g transform="translate(-480.781 -257.481)"> <path d="M510.938,291.116H480.781v-5.829h2v3.829h28.157Z"/> <path d="M510.873,286.423h-2v-.136H480.781V263.756a6.281,6.281,0,0,1,6.273-6.275H505.36c4.035,0,5.369,3.557,5.51,5.438Zm-28.092-2.136h26.092V262.994c-.028-.289-.387-3.513-3.513-3.513H487.054a4.279,4.279,0,0,0-4.273,4.275Z"/> <rect height="4.842" transform="translate(506.142 285.273)" width="2"/> <path d="M500.972,266.945v5.119h-9.633v-5.119h9.633m2-2H489.339v9.119h13.633v-9.119Z"/> </g> </g>

</svg>